<svg id="Layer_1" data-name="Layer 1" xmlns="http://www.w3.org/2000/svg" viewBox="0 0 252.6 92.48"><defs><style>.cls-1{fill:#fffffa;}.cls-2{fill:#fff;}</style></defs><title>pears-01</title><path class="cls-1" d="M14.67,66.5l-1.24,5.72a2.57,2.57,0,0,1-.48,1.13,1,1,0,0,1-.81.35,1,1,0,0,1-.67-0.21,0.69,0.69,0,0,1-.24-0.56,1.52,1.52,0,0,1,.07-0.43,5.37,5.37,0,0,1,.3-0.7l2.6-5.3h0.48Zm4.3,0-1.27,5.72a2.61,2.61,0,0,1-.46,1.13,1,1,0,0,1-.78.34,1,1,0,0,1-.68-0.21,0.69,0.69,0,0,1-.25-0.56,1.52,1.52,0,0,1,.07-0.43,4.75,4.75,0,0,1,.31-0.7l2.56-5.3H19Z"/><path class="cls-1" d="M30.63,83c2.7,0,4.37-1.67,5.1-4.2l2.42,0.47A7.23,7.23,0,0,1,30.63,85c-5.5,0-8.32-4.2-8.32-9.37s2.83-9.37,8.32-9.37c4.1,0,6.75,2.27,7.52,5.75l-2.42.47a4.86,4.86,0,0,0-5.1-4.22c-3.75,0-5.82,3.2-5.82,7.37S26.63,83,30.63,83Z"/><path class="cls-1" d="M50.14,66.26c5.47,0,8.55,4.2,8.55,9.37S55.61,85,50.14,85s-8.57-4.2-8.57-9.37S44.64,66.26,50.14,66.26Zm0,16.75c3.72,0,6-3.2,6-7.37s-2.32-7.37-6-7.37-6.07,3.2-6.07,7.37S46.14,83,50.14,83Z"/><path class="cls-1" d="M74.76,66.63h2.37V77.08c0,4.62-2.1,7.92-7,7.92s-7-3.3-7-7.92V66.63h2.37V77.21c0,3.45,1.37,5.67,4.7,5.67s4.63-2.22,4.63-5.67V66.63Z"/><path class="cls-1" d="M82.37,84.63v-18h2.42l9.4,14.15V66.63h2.27v18H94l-9.4-14.15V84.63H82.37Z"/><path class="cls-1" d="M106.14,84.63V68.76h-6V66.63h14.47v2.12h-6V84.63h-2.37Z"/><path class="cls-1" d="M124.33,84.63V77.06l-7-10.42h2.88l5.42,8.42L131,66.63h2.75l-7,10.42v7.57h-2.37Z"/><path class="cls-1" d="M153,83c2.7,0,4.37-1.67,5.1-4.2l2.42,0.47A7.23,7.23,0,0,1,153,85c-5.5,0-8.32-4.2-8.32-9.37s2.83-9.37,8.32-9.37c4.1,0,6.75,2.27,7.52,5.75l-2.42.47a4.86,4.86,0,0,0-5.1-4.22c-3.75,0-5.82,3.2-5.82,7.37S149,83,153,83Z"/><path class="cls-1" d="M164.87,84.63v-18h2.37V82.51h10.07v2.12H164.87Z"/><path class="cls-1" d="M189.64,66.63l6.95,18H194l-1.62-4.37h-8.1l-1.65,4.37h-2.42l7-18h2.43Zm-4.55,11.5h6.52l-3.2-8.77Z"/><path class="cls-1" d="M200.09,66.63h6c3.62,0,6.92,1.27,6.92,5.27,0,2.75-1.53,4.32-4.55,4.85,1.82,0.52,3,2.15,3.87,3.7l2.42,4.17h-2.85l-1.7-3c-1.37-2.47-2.65-4.22-5.42-4.22h-2.32v7.25h-2.37v-18Zm2.37,8.62h3.87c2.82,0,4.22-1.1,4.22-3.27,0-2.45-1.9-3.22-4.28-3.22h-3.82v6.5Z"/><path class="cls-1" d="M218.26,84.63v-18h12.42v2.12h-10v5.62h8.8v2.12h-8.8v6h10.3v2.12H218.26Z"/><path class="cls-1" d="M234.84,73.7l1.27-5.7a2.64,2.64,0,0,1,.47-1.15,1,1,0,0,1,.8-0.35,0.92,0.92,0,0,1,.66.23,0.82,0.82,0,0,1,.24.62,2.53,2.53,0,0,1-.3.89l-0.06.16-2.58,5.3h-0.5Zm4.3,0,1.25-5.7a2.63,2.63,0,0,1,.47-1.15,1,1,0,0,1,.81-0.35,0.9,0.9,0,0,1,.65.23,0.83,0.83,0,0,1,.24.62,2.6,2.6,0,0,1-.29.89l-0.07.16-2.58,5.3h-0.48Z"/><path class="cls-1" d="M97.22,30.15v2.06H86.09c-0.07-4.14,2.59-5.54,5.47-7.79C93.64,22.8,95,21.28,95,19.58a3,3,0,0,0-3.14-3.22c-2.1,0-3.24,1.57-3.27,3.7l-2.18-.24c0.19-3.29,2.23-5.39,5.49-5.39s5.27,1.89,5.27,5.2c0,2.64-2.25,4.89-4.35,6.38-1.84,1.31-3.82,2.71-4,4.14h8.42Z"/><path class="cls-1" d="M105.25,14.43c4.09,0,5.63,3.82,5.63,9.07s-1.55,9.07-5.63,9.07-5.64-3.82-5.64-9.07S101.16,14.43,105.25,14.43Zm-3,13.62L107,16.95a2.44,2.44,0,0,0-1.79-.7c-2.64,0-3.46,3.22-3.46,7.26A16.86,16.86,0,0,0,102.29,28Zm5.85-9.12-4.72,11.13a2.46,2.46,0,0,0,1.81.7c2.64,0,3.46-3.22,3.46-7.26A15.87,15.87,0,0,0,108.15,18.93Z"/><path class="cls-1" d="M120.67,32.21h-2.3V18.78a4.46,4.46,0,0,1-4,2.54V19.27a5.44,5.44,0,0,0,4.52-4.47h1.79V32.21Z"/><path class="cls-1" d="M126.33,16.85V14.79H137v2.06a26.42,26.42,0,0,0-5.93,15.36h-2.32a27,27,0,0,1,5.83-15.36h-8.25Z"/><path class="cls-1" d="M160.93,14.79l6.72,17.41h-2.49L163.59,28h-7.84l-1.6,4.23h-2.35l6.77-17.41h2.35Zm-4.4,11.13h6.31l-3.1-8.49Z"/><path class="cls-2" d="M175.36,40.14H77.75V6.78h97.61V40.14Zm-96.8-.81h96V7.59h-96V39.33Z"/><rect class="cls-2" x="137.56" y="23.41" width="12" height="2"/></svg>