<svg id="Layer_1" data-name="Layer 1" xmlns="http://www.w3.org/2000/svg" viewBox="0 0 453.51 69.53"><defs><style>.cls-1{fill:#fffffa;}</style></defs><title>quednaus-logo-01</title><path class="cls-1" d="M76,48.44c0.57,2.18.14,3.63-1.56,4.83-3.55,2.5-6.85,5.37-10.51,7.69a15.76,15.76,0,0,1-14,1.85c-3-1-5.59-.15-8.36.24-8.55,1.19-16.8.52-24.28-4.24C10.44,54.44,6.78,47.95,5.57,40.06a32.47,32.47,0,0,1,2.1-18.5C11.46,13.06,18.13,8,27.16,6.1,35.51,4.35,43.7,4.88,51.35,8.94c8.65,4.59,13,12.13,13.91,21.67a43.49,43.49,0,0,1-.18,9.58c-1,7.94-5.34,13.95-11.64,18.67a5.49,5.49,0,0,0-.5.53c3.75,0.94,7.31.88,10.41-1.25,3.86-2.65,7.48-5.64,11.19-8.5C75,49.3,75.42,48.91,76,48.44ZM37.85,44.36c1.07,0,2,0,3,0,3.17,0,2.65-.38,2.8,2.74a14,14,0,0,0,4.3,10,1.87,1.87,0,0,0,2.68.26,16.33,16.33,0,0,0,7.14-9.54A46.66,46.66,0,0,0,58,22.87c-1.46-5.58-4.7-9.93-10.22-12.15A32.07,32.07,0,0,0,27.12,9.34c-7.57,2-12.22,6.94-14.36,14.28a38.35,38.35,0,0,0,0,21.67C14.38,51,17.55,55.55,23.05,58.13a28.78,28.78,0,0,0,14.54,2.57c1.84-.14,3.66-0.49,5.65-0.77C38.81,54.32,37.35,50.09,37.85,44.36Z"/><path class="cls-1" d="M287.31,52.37a3.2,3.2,0,0,0,.16-0.62q-0.12-18.13-.23-36.26c0-3.67-1-6.85-4.5-9.16h12.5a25.53,25.53,0,0,0-2.11,2c-1.78,2.14-2.21,4.72-2.23,7.4q-0.21,22.59-.39,45.19c0,0.8,0,1.6,0,2.9a7.77,7.77,0,0,1-1.89-1.12c-7.09-8.33-14.09-16.74-21.23-25-5.57-6.46-11.32-12.77-17-19.15-0.17-.2-0.39-0.36-0.82-0.75,0,0.83-.1,1.37-0.1,1.91,0,11.29,0,22.58,0,33.86,0,3.49,1,6.39,4.31,8.57H242c3.58-2.33,4.33-5.57,4.29-9.32-0.11-11.69-.17-23.38,0-35.06a10.94,10.94,0,0,0-3.9-9.22,7.68,7.68,0,0,1-1.9-2.26c2.29,0,4.58-.06,6.87.05a2.75,2.75,0,0,1,1.23,1.13L286.89,52A4.48,4.48,0,0,0,287.31,52.37Z"/><path class="cls-1" d="M184.17,62.2a9.14,9.14,0,0,0,4.37-8.07c0.06-11.23.17-22.45,0.23-33.68,0-2-.2-4-0.23-6a9.67,9.67,0,0,0-4.14-8.22h4c7.61,0,15.24.21,22.84,0,13.7-.44,22.35,8.9,23.93,20.11,0.88,6.2,1,12.35-1.17,18.31-3.62,10.08-13.68,17.84-25,17.67-7.85-.12-15.7,0-23.54,0C185.21,62.28,184.92,62.24,184.17,62.2Zm9.73-2.73c5.4,0,10.72.3,16-.06C220,58.72,227,52.5,229.38,42.57A40.33,40.33,0,0,0,229.56,25c-1.74-8.5-7.39-14.34-16-15.39-6.37-.77-12.9-0.31-19.35-0.38a0.64,0.64,0,0,0-.26.19v50Z"/><path class="cls-1" d="M355.13,6.33h13.74l0.38,0.37a3.36,3.36,0,0,0-.88.34,7.49,7.49,0,0,0-3.26,6c-0.13,10.82-.3,21.64-0.22,32.45,0,3.34.6,6.74,2.84,9.53,4.06,5.06,11.79,6.72,17.32,3.18a143.32,143.32,0,0,0,12.22-9.41A3.1,3.1,0,0,0,398,46.6c0.1-5,.13-10,0.16-14.95,0-5.27-.07-10.54,0-15.81,0.08-3.82-.86-7.09-4.43-9.52h12.56A9.35,9.35,0,0,0,402,14c-0.13,3.26-.26,6.53-0.28,9.79,0,8.36-.11,16.73,0,25.09a35.83,35.83,0,0,0,1,7.63,37.21,37.21,0,0,0,2.25,5.58h-11c3.64-2.59,3.92-6.17,4-10.25-1.82,1.48-3.37,2.79-5,4-3.28,2.58-6.53,5.23-10.56,6.62-8.56,2.95-21.83-.93-22.65-15.1-0.4-6.91-.25-13.85-0.32-20.78,0-3.61,0-7.22,0-10.83C359.3,11,358.68,9.56,355.13,6.33Z"/><path class="cls-1" d="M116.27,6.33H128.9c-3.65,2.4-4.49,5.69-4.5,9.5,0,10.37-.23,20.74-0.26,31.11a63.43,63.43,0,0,0,.59,7.86c0.33,2.67,1,5.25,3.34,7.36H116.69c3.2-4,4-6.26,3.48-10.11-2.14,1.73-4.2,3.43-6.3,5.07-3.07,2.4-6.21,4.69-10.06,5.73-8.34,2.25-20.67-1.6-21.58-15.13C81.76,40.87,81.95,34,81.87,27.1c0-4.07-.06-8.14,0-12.2a9.39,9.39,0,0,0-4.41-8.52H91.08L89.24,8.63c-1.55,1.89-1.82,4.18-1.84,6.48-0.06,10.08-.15,20.16,0,30.23,0,3.35.57,6.75,2.79,9.56,4,5,11.67,6.83,17.15,3.39,4.43-2.79,8.41-6.31,12.51-9.59a2.9,2.9,0,0,0,.65-2c0.1-5.21.15-10.43,0.18-15.64s0-10.66,0-16A9.71,9.71,0,0,0,116.27,6.33Z"/><path class="cls-1" d="M319.42,6.23c2.45,0,4.5-.09,6.53.06a2.36,2.36,0,0,1,1.41,1.35q10.17,23.14,20.25,46.31c1.39,3.18,3.12,6.1,6.44,8.19H339.48c0.57-.53,1.08-0.93,1.51-1.42,1.55-1.73,2.36-3.73,1.44-6-1.86-4.54-3.83-9-5.81-13.53a1.54,1.54,0,0,0-1.18-.66q-10.23-.06-20.45,0a1.82,1.82,0,0,0-1.35.91c-1.82,4.25-3.61,8.52-5.28,12.83-1.25,3.22-.52,5.12,2.8,7.84H298.37c4.45-3,6-7.79,8.07-12.24Q314.27,32.84,322,15.74C323.75,11.87,323.07,9.22,319.42,6.23Zm-4.2,31.33h20.1L325.18,15.51Z"/><path class="cls-1" d="M167.94,29.44v8.18a0.92,0.92,0,0,1-.4,0c-2.88-2.44-6.29-3.09-9.93-3l-11.77.27V59.44c1.53,0.09,3.06.27,4.58,0.27,5,0,10-.15,14.95-0.16a19.13,19.13,0,0,0,9.59-2.8l1.31-.72v6h-38.5c3-2.71,2.39-6.36,2.41-9.67,0.07-13.74-.07-27.49-0.31-41.23,0-1.63-1.08-3.25-1.71-5,5.31,0.42,10.9,1.17,16.5,1.21s11.29-.63,17.08-1v6.57c-2.25-.9-4.38-2.11-6.67-2.57a54.72,54.72,0,0,0-8.87-.75c-3.42-.12-6.85,0-10.5,0v1.89c0,5.73.08,11.46,0,17.18,0,1.84.33,2.77,2.36,2.69,5.3-.19,10.61-0.19,15.91-0.47C165.25,30.81,166.54,30,167.94,29.44Z"/><path class="cls-1" d="M415,45.29c0.23,0.63.52,1.24,0.69,1.89A21,21,0,0,0,423,58.32c5,4,14.41,3.16,18.74-1.58a11.18,11.18,0,0,0-.25-15.11c-2.81-2.91-6.28-4.67-9.9-6.31a77.25,77.25,0,0,1-9.83-5.12C412.81,24.51,416,13,422,8.77a19.88,19.88,0,0,1,10.92-3.55,27,27,0,0,1,12.21,2.2A31.91,31.91,0,0,1,447.9,9l-2.16,8.74-0.38.1c-0.35-.78-0.71-1.55-1-2.34a11.07,11.07,0,0,0-9.24-7.26,12.31,12.31,0,0,0-12.21,5c-2.45,3.33-1.9,8.19,1.22,11.65,2.41,2.66,5.57,4.13,8.75,5.59,3.36,1.55,7,2.75,10,4.83,12.49,8.7,7.06,21.51-2.65,26-8.24,3.8-16.47,3.11-24.05-2.24a1.92,1.92,0,0,1-.81-1.16c-0.36-4.15-.64-8.31-0.94-12.46Z"/></svg>